<svg xmlns="http://www.w3.org/2000/svg" width="1600" height="900" viewBox="0 0 1600 900"><defs><style>.cls-1{fill:#07182b;}.cls-2{fill:#f2e375;}.cls-3{fill:#ead13f;}.cls-4{fill:#eadc8c;}.cls-25,.cls-5{fill:#fff;}.cls-6{fill:#662d91;}.cls-7{fill:#7e00ed;}.cls-8{fill:#ddca58;}.cls-9{fill:#a4b797;}.cls-10{fill:#96ab8a;}.cls-11{fill:#80cecc;}.cls-12{fill:#b4c7a9;}.cls-13{fill:#c5d2c0;}.cls-14{fill:#f4d083;}.cls-15{fill:#e2dfa6;}.cls-16{fill:#ea718b;}.cls-17{fill:#887146;}.cls-18{fill:#cd89d3;}.cls-19{fill:#c875d1;}.cls-20{fill:#4d4d4d;}.cls-21{fill:#a54548;}.cls-22{fill:#603813;}.cls-23{fill:#b3b3b3;}.cls-24{fill:#7f1726;opacity:0.22;}.cls-25{opacity:0.05;}</style></defs><g id="Layer_1" data-name="Layer 1"><rect class="cls-1" x="-3.5" y="-0.5" width="1602" height="901"/><path class="cls-2" d="M227.8,582.31s-.17,45.42,35.74,118.74c0,0,52.57,20.31,122-47.94,0,0-7.65-78.91-47.41-133.6,0,0-42.45,17-52.52,18.63C285.58,538.14,251.19,554.82,227.8,582.31Z"/><path class="cls-3" d="M263.54,701.05s14.63,39.59,47.57,48.83c0,0,5.78,21.21,6,51.37,0,0,1.21,18.17,18.92,10.73,0,0,18.2-9.37-7.1-8.53,0,0-7.11-.39-6-21.73l.65-28.56s22-1,33.34-6.76l10.45,43.31s-1.65,12.4,11.55,7.09,22.63-9.83,7.34-12c0,0-10.57,9.57-14.58-9.94L366.91,740s26.24-14.55,18.6-86.86C385.51,653.11,328.32,716.44,263.54,701.05Z"/><path class="cls-4" d="M283.66,629.94s9.34,52.52,31,54.7c0,0,28.14,12.11,21.27-2.32,0,0,.54-4.41-22.29-12.52,0,0-11.72-4.48-20-43.42"/><path class="cls-4" d="M373.49,595.17s14,7.81,26.68,27.15c0,0,7.58,6.62,22.55,9.45,0,0,21.24,14,14-3.22l-16.42-8.44s-11.83-.72-23.93-16.78-22.43-24.07-27-21.26"/><path d="M309.6,599.8s-4.58-12.91,18.28-14c0,0,8.81-1.39,14.63-14.5,0,0,17.74-9.21,13.61,12,0,0-12.56,15.51-32.74,20.93C323.38,604.22,312.87,607.37,309.6,599.8Z"/><ellipse cx="308.78" cy="561.42" rx="8.77" ry="14.52" transform="translate(-244.75 238.7) rotate(-30.95)"/><ellipse cx="333.29" cy="546.91" rx="8.77" ry="14.52" transform="translate(-233.79 249.23) rotate(-30.95)"/><path class="cls-5" d="M298.3,557.67s7.85-.49,1.58-7.45C299.88,550.22,297.75,552.43,298.3,557.67Z"/><path class="cls-5" d="M322.8,543.16s7.85-.5,1.58-7.46C324.38,535.7,322.26,537.92,322.8,543.16Z"/><path class="cls-6" d="M151.8,585.62s10.06-6.9,22.74,3.26c0,0,28.33,13.32,53.26-6.57,0,0,31.07-30.55,51.53-40.84,0,0,47.53-14.3,58.77-22,0,0,25.91-10.55,25.7-12.8s27.47-4.51,32.37-2.18-41.45-28.32-73.26-14.71L225.4,524.34S147.92,570.9,151.8,585.62Z"/><path class="cls-7" d="M309.57,471.88s9.93,11.59,13.34,17.94l-32.82,11.57s-3.47-5.67-7.12-20.07Z"/><polygon class="cls-7" points="245.02 494.79 222.74 502.69 225.4 524.34 252.14 514.85 245.02 494.79"/><path class="cls-6" d="M222.74,502.69s4.56-79.22,12.44-85.62c0,0,17.48-23,51-18.1,0,0,22.86,4.28,19,41,0,0-11.18-29.85-35-16.66,0,0-16.38,6.29,39.34,48.58"/><rect class="cls-8" x="245.68" y="483.6" width="43.66" height="28.5" rx="12" transform="translate(-151.1 118.14) rotate(-19.54)"/><rect class="cls-7" x="249.64" y="487.58" width="35.07" height="21.37" rx="10.06" transform="translate(-151.26 118.05) rotate(-19.54)"/><path class="cls-9" d="M419.15,313.08s-20.48,42.86-16.64,59.11c0,0,52.37,57.63,148.55,14.74,0,0,20-29.89,9.93-87.78,0,0-37.52-108.15-36.62-119.5l-11.36-5s-31.4,34.07-130.72,18.54c0,0,11.28,56.84,26.32,82.85.62,1.07,1.24,2.08,1.87,3"/><path class="cls-10" d="M402.51,372.19s-18.53,78.16,50.4,85.24l8.39,59.11s-1.67,13.48,21.58,8.14c0,0,14.67-8.21-8.07-10.1,0,0-5.22,2.79-5.77-19.09l-6.41-37.91s17.52,1.09,32.91-5.69L506.23,508s-23.58,8.93-7.13,14.55c0,0,27.26-1,17-15.9l-7.4-62.88s16.71-6.63,42.38-56.88C551.06,386.93,471.05,426.88,402.51,372.19Z"/><path class="cls-11" d="M475.72,271.9s4.42,9.88,2.15,10.29c0,0-1.06,8.43,3.15,9.61,0,0-3.48-6.8-1.16-8.21s-1.46-10.25-1.46-10.25"/><path class="cls-12" d="M505.47,309.52s82-12.66,98.63-17.58c0,0,6.53-6.54,18,14.3,0,0,18.72,3.47,2-24.29,0,0-.72-8.24-58.33,4.87l-62.52,7.31"/><path class="cls-12" d="M548.57,264.2s53.22-24.53,86.68-22.64c0,0,10.88-2.57,11.29,11.16,0,0,11.2,14.75,10.48-8.64,0,0-5.09-21.74-29.48-13.69,0,0-79.33,15.77-83.37,20.22"/><path d="M436.32,214.19s-5.69,7.45-3.75,15.71c0,0,2.52,19.09,13.74,18s21.9,2.58,27.43-9.59-4.88-28.71-4.88-28.71S449.41,199.53,436.32,214.19Z"/><path d="M484.3,197.06s-5.06,6.64-3.34,14c0,0,2.25,17,12.26,16s19.52,2.3,24.45-8.55-4.35-25.6-4.35-25.6S496,184,484.3,197.06Z"/><path class="cls-13" d="M476.26,258.5s37-13.42,52.11-7.39c0,0,8.33,4.45,1.74,12.27S481,274.17,481,274.17,465.81,271.22,476.26,258.5Z"/><polygon class="cls-14" points="498.96 252.02 499.97 259.12 506.23 257.31 505.3 250.75 498.96 252.02"/><polyline class="cls-14" points="509.3 250.18 510.02 258.82 514.98 256.99 515.1 249.64"/><polyline class="cls-14" points="486.91 273.66 486.03 262.22 492.01 261.37 495.1 272.78"/><circle class="cls-15" cx="498.55" cy="208.6" r="14.41"/><circle class="cls-15" cx="459.06" cy="227.23" r="14.16"/><path class="cls-16" d="M390.65,196.15s-6.64-11.9,8-16.53c0,0-4-17.31,25.18-13.28,0,0-2.42-17,19-10.35,0,0,15.89-14,19.24,2.38,0,0,3.35-19.58,29.95-1.29,0,0,16.85,2.31,7.2,15.93,0,0,12.25-19.48,14.27,5.71C513.48,178.72,470.87,208.32,390.65,196.15Z"/><path d="M396.37,197s.15-7.32,4.16-7.89,5.08-7.36,5.08-7.36.92,6.51-3.87,8.72a6.33,6.33,0,0,0-3.95,6.71Z"/><path d="M444.56,158.63s7.28.84,7.47,4.88,6.84,5.76,6.84,5.76-6.56.3-8.31-4.68a6.33,6.33,0,0,0-6.31-4.57Z"/><path d="M417.66,165.77s2.85,2,.63,4.39-2,4.4-2,4.4,3.17,3.39,2.76,6.38c0,0,2.25-7.09-.25-6.74s.69-3.25.69-3.25S423,166,421.09,166"/><path d="M496.06,157.87s.95,1.92-1,2.55a3.59,3.59,0,0,0-2.35,1.8s.71,2.77-.4,4.26c0,0,3.31-3.16,1.86-3.71s1.33-1.55,1.33-1.55,3.3-1.64,2.3-2.21"/><path d="M464,186.16s11.32-2.13,13.84.66c0,0,8.08-1.86,10.77,2.51,0,0-12.33-2.91-14-1.29C474.63,188,474,185.86,464,186.16Z"/><path d="M462.22,157.71s8-4.09,10.71,4.33c0,0,5.16-2.36,6.8,2.75a7.45,7.45,0,0,0-7.35-2S471.74,155.89,462.22,157.71Z"/><path d="M434.48,168.06s0-9,8.78-7.5c0,0,.28-5.68,5.57-4.77a7.45,7.45,0,0,0-5.16,5.6S437.24,158.77,434.48,168.06Z"/><path d="M409,182.12s8-4.09,10.71,4.33c0,0,5.16-2.36,6.8,2.75a7.43,7.43,0,0,0-7.35-2S418.51,180.3,409,182.12Z"/><path d="M441.94,198.67s4.18.21,2.84-6.47l1.73-6.6-.58,6.44s-1.6,5-.27,6.37"/><path d="M501.62,169.54s-1.88,3.74,4.77,5.21l5.34,4.25-5.65-3.14s-3.89-3.46-5.72-2.81"/><path d="M457.81,182.46s1.82-8.51,3.49-9.47,9.61-2.6,9.61-2.6l-9.73,3.42S457.67,181.46,457.81,182.46Z"/><path d="M430.72,174.81s8.44-2.18,10-1.11,6.61,7.45,6.61,7.45L440,174S431.56,174.23,430.72,174.81Z"/><path d="M479.78,176.92s7.71-4,9.51-3.38,8.14,5.74,8.14,5.74l-8.85-5.3S480.46,176.17,479.78,176.92Z"/><path class="cls-17" d="M389,219.3s-15.3.13-16.16,1.27c0,0,6.94-1.49,6.23-2.92,0,0-4.08-1.75-4.9-1.24,0,0-.82-3.06-1.82-2.92,0,0,9.86,4.73,13.37,4.23,0,0,1.14-2.71-2.43-2.72s-6.08-3.22-6.08-3.22-2.92-6.22-2.49-6.8c0,0,4.14,7.59,4.57,7,0,0,3.93,2.5,5.29,1.29l1.71-2.29Z"/><path class="cls-17" d="M524.58,181.15s.18-5.63,11.19-10.77c0,0-6.72,3-8.79,2.78,0,0,1.07-6.79,8.3-13.44,0,0-3-.08-7.92,8.79,0,0-.87-13.16-2.37-12.94,0,0,1.92,13.51.13,15.3s-3.58-11.17-3.58-11.17,2,11.82.07,12.13-3.27-12.77-3.27-12.77l.56,11.16s-8.08-7.66-8.79-10.3c0,0,7.36,11,5.93,11.73l-2.82,4.49"/><path class="cls-18" d="M828.18,543.05s31.78-6.26,44-25.78c0,0,13.38-17.28,15.06-26.21,0,0,1.67-16.17,6.69-26.76,0,0,14.49-16.73,14.49-23.42,0,0-3.9-7.25-20.63,15.61,0,0-6.69,10-8.36,27.33,0,0-9.06,30.49-22.37,34.48,0,0-13.86,12.86-30.31,12.89C826.79,531.19,826.52,541,828.18,543.05Z"/><path class="cls-18" d="M707.39,527.2s-23.07-1.57-28.09-39.48c0,0-15.06-37.92-28.44-45.72,0,0-8.63-12.27-12.4,0a38.08,38.08,0,0,0,14.07,20.63s16.17,18.4,15.06,30.11c0,0,4.27,41.29,39.49,44.06C707.08,536.8,708.15,528.76,707.39,527.2Z"/><path class="cls-18" d="M680.41,629.9s5.43,5.8,27.25-6.58c0,0,17.92-1.22,29.07,11,0,0,12.27,0,28.44-8.92,0,0,7.24-1.67,22.86,6.69,0,0,4.38,3.5,25.61-8.84,0,0,9.48-2.23,23.72,5.54,0,0,7,5.87,13.13-.15,0,0,9.49,52.07,0,62.05,0,0-3.36,11.66-89.23,9.43,0,0-95.34-12.27-94.23-20.63C667,679.53,673.72,632.13,680.41,629.9Z"/><path class="cls-19" d="M667,679.53s-5,60.22,66.91,62.45c0,0-11.15,21.74-3.34,54.64,0,0-19.52-.56-18.4,6.69s18.4,3.35,18.4,3.35,10.59,4.46,6.69-13.38c0,0,.55-52.42,8.36-52.42,0,0,17.29,3.91,20.07.56,0,0,10.6,49.07,3.35,61.89,0,0,1.67,4.46,16.73,2.79,0,0,11.15,2.79,12.26-3.35,0,0,2-4.41-16-4.71,0,0-3.49-1.42-1.82-21.49,0,0,3.9-21.19-3.34-35.69,0,0,29,7.81,55.2-15.05,0,0,17.31-6.59,18.41-35.08,0,0-8.94,11.66-89.23,9.43C761.26,700.16,668.15,688.45,667,679.53Z"/><path class="cls-5" d="M680.41,629.9s5.43,5.8,27.25-6.58c0,0,16.8-1.22,29.07,11,0,0,19-1.67,28.44-8.92,0,0,8.36-1.11,22.86,6.69,0,0,2.71,4.06,25.61-8.84,0,0,5-4.65,29,8,0,0,6.2.11,7.86-2.56,0,0-9.47-73.23-22.31-85.63,0,0-3.35-24.66,2.22-60.35,0,0,13.39-87-56.31-94.23,0,0-55.91-11.56-66.43,55.28,0,0-5.08,24.8-.27,83.45C707.39,527.2,712.75,555.19,680.41,629.9Z"/><ellipse class="cls-18" cx="752.9" cy="454.82" rx="13.38" ry="21.19"/><ellipse class="cls-18" cx="785.24" cy="454.82" rx="13.38" ry="21.19"/><path d="M752.9,437.54s12.27,1.11,7.81,20.07c0,0-1.68,15.05-9.48,14.5,0,0-8.73,0-8.83-17.28S752.9,437.54,752.9,437.54Z"/><path d="M783,437.54s12.27,1.11,7.8,20.07c0,0-1.67,15.05-9.47,14.5,0,0-8.73,0-8.83-17.28S783,437.54,783,437.54Z"/><path class="cls-5" d="M745,447.94s4,1.31,6.24-.92.89-6.35.89-6.35S746,442.18,745,447.94Z"/><path class="cls-5" d="M776.22,446.83s4,1.3,6.23-.93.9-6.35.9-6.35S777.23,441.07,776.22,446.83Z"/><path d="M734.5,494.41s-1.12,11.71,12.27,6.69c0,0,13.1-1.13,14.91,2.78,0,0,5.52,2.33,14.54-1.62,0,0,8.46-2.27,14-.6,0,0,12.87,1.79,14.24-2.17,0,0,2.48-10.52-5.88-12.82S777.43,490,777.43,490a38.43,38.43,0,0,1-22.86,0S735.61,481,734.5,494.41Z"/><path class="cls-9" d="M1387.41,523.27s8.25,44-18.9,78.2c0,0-8.8,33.95-50.51,92,0,0-23.43,27.63-34.65,62.06,0,0-13.6,26.53-50,22.4,0,0-13.9,16.54-39,57.05,0,0-25.16,12.49-30.56-14.9,0,0,4.37-5.47,21.4,6.66,0,0,38-55.61,33.66-56.42,0,0-20.44-3.93-31-21.51,0,0-33.23,22.45-39.92,52.22,0,0-4.68,1.75,13,12.92,0,0,6.41,11.29-4.21,8.36,0,0-27.66-13-24.25-23.26,0,0,43-66.22,45.92-64.28,0,0-15.35-35.47,21.16-77.39,0,0,6.64-10.93,11.64-68.4,0,0-.69-96.94,55.8-139.45C1267,449.49,1303.59,497.1,1387.41,523.27Z"/><path class="cls-12" d="M1250.67,620.09s-89-70.35-92.25-65.53-.29-10-14.68,8.33c0,0-14.86-1.45,2.37-19,0,0,7.51-12.24,40,15.88L1256,608.15"/><path class="cls-12" d="M1213.27,561.12s-38.84-31.47-48.33-35c0,0-28.91-23.59-36.33-18.78,0,0-12.94,19.28-14.36,9.94,0,0,1.33-16.59,18.09-20.72,0,0,8.7-.46,46.3,26.86,0,0,34.73,23.75,36.24,27"/><path d="M1312,542.57s-24.78,3.29-26.38-17.7c0,0-4.23-17.21,16.18-24.12,0,0,7.84-7,21.47,14.41C1323.26,515.16,1328.19,532.11,1312,542.57Z"/><path class="cls-15" d="M1318.39,533s-4.38,10.56-20.61-1.73c0,0-16.71-12.61-4.13-20.95,0,0,4.17-8.8,15.91,5.22C1309.56,515.57,1319.72,519.72,1318.39,533Z"/><path d="M1255.82,506s-12.86-6.62-2.8-32c0,0,12.38-17,22.13-7.26,0,0,17.19,10.66,9.7,32.51C1284.85,499.25,1271.72,519.6,1255.82,506Z"/><path class="cls-15" d="M1277.49,475s10.11,11,2.83,22.88c0,0-7.44,14.22-18.92,1.1,0,0-15-9-5.63-21.33C1255.77,477.69,1266.42,461.32,1277.49,475Z"/><path class="cls-13" d="M1286.36,585s-5.68,10.38-26.56-6.43c0,0-18.92-12.66-28.43-18.7,0,0-12.89-13-5.45-17.55,0,0,2.79-8.59,27.14,4.36C1253.06,546.64,1295.75,570.08,1286.36,585Z"/><path class="cls-14" d="M1281.64,568.12s-5.1,12.55-4.63,15-9.31-9-8-11c0,0,5.5-10.29,6.63-9.89S1280.59,566.82,1281.64,568.12Z"/><path class="cls-14" d="M1272.4,559.55s-4.27,6.79-5,10.32a19.93,19.93,0,0,1-7.59-6s1.59-4.32,7.33-8.26Z"/><path class="cls-14" d="M1263.1,552.81a19.81,19.81,0,0,0-5,6.39s-4.34-.82-4.17-4.2c0,0,3.15-5.51,4.64-5.24S1261.66,551.87,1263.1,552.81Z"/><path class="cls-14" d="M1253.06,546.64s.87,0-2.53,6.1c0,0-.07,1.9-3.17-.11,0,0-5.08-2.78-5.86-3.93,0,0-2.32-1.31,2-6.53A57.24,57.24,0,0,1,1253.06,546.64Z"/><path class="cls-14" d="M1230.09,539.65c-1.66,1.61,3.64,9.33,3.64,9.33s5.38-1.1,4.44-2.51,1.11-5.77,1.11-5.77c-9.32-1.06-8-3-9.32-1.06l-1.29,1.92"/><path class="cls-14" d="M1269.26,585s2.77-3.83,0-7.06c0,0-3.53-5.16-4.17-4.19l-4,5.89S1268.75,585.43,1269.26,585Z"/><path class="cls-14" d="M1258.36,577.57l1.74-3s1.16-1.35-1.41-1.68a8,8,0,0,1-3.38-2.26s-1.31-1.51-3.32,2.7C1252,573.33,1255,575.31,1258.36,577.57Z"/><path class="cls-14" d="M1248.24,571.14s8.34-7.7,4.82-9.19c0,0-3.13-2.31-5.27,2l-2.49,4.91Z"/><path class="cls-14" d="M1241.9,566.66s3-7.19,4.36-7.34c0,0,1.59-1-2.46-3.59,0,0-4.7-3.67-5.36,1.48a11.39,11.39,0,0,1-3.8,4.71S1240.88,566.11,1241.9,566.66Z"/><path class="cls-14" d="M1231.37,559.83s5-5.12,1-6.22c0,0-7.14-3.22-6.62-1.11C1225.7,552.5,1230.75,559.08,1231.37,559.83Z"/><path class="cls-13" d="M1269.6,530.57s-4,7.82-1.93,10.59,5.77-1.72,5.77-1.72S1273,532.84,1269.6,530.57Z"/><path class="cls-13" d="M1264.24,525.58s-4.28-3.57-10.91,7.36C1253.33,532.94,1262.53,537,1264.24,525.58Z"/><path class="cls-20" d="M1372.88,564.21s-2.08-3.5-4.18-2.8c0,0-.8,7.45-1.54,6.8,0,0-2,1.29-1.19-7.24,0,0-4.67-.34-4.68,1.75,0,0-3.24,6.92-3.88,5.79,0,0-1.33.31,1.53-6.76,0,0-5.69-1.63-6.34-.66,0,0-2.09-2.1,6.12-.79,0,0,1.31-6.11.67-7.24a25.69,25.69,0,0,0-4.83-1.14s-1.76-2.59,4.19,0a4.21,4.21,0,0,0,.17-5.48s-.8.16,2.76-7.23-2.6,8-.84,12.71c0,0,6.4,1.52,6.34-.27,0,0,2.07-12.26,3.19-10.81,0,0,.48,2.42-.67,11.43,0,0,5-.14,5.79,1.79,0,0,.14,5-4,.79,0,0-2.25-2.9-2.58,1.77,0,0-1.3,4,2.08,4.19C1371,560.82,1374.33,563.08,1372.88,564.21Z"/><path class="cls-9" d="M1367,555.33a4,4,0,0,1-.33,2.58,3.43,3.43,0,0,0-.81,2.25s-3.74-1-4.61.47a8.6,8.6,0,0,1,.44-6.76S1365.51,552.27,1367,555.33Z"/><path class="cls-17" d="M1388.54,542.61s12.15-15.68,17-14.54c0,0-7.27.77-11,5.6,0,0,7.62-16.24,5.7-17.53a67.79,67.79,0,0,1-9.88,19.94s6.34-13.62,3-17c0,0-1.1,12.05-3,15a1.69,1.69,0,0,1-1.86.6Z"/><path class="cls-17" d="M1268.36,451.13s0-3.17,10.38-16.5c0,0-.16-2.9-7.6,8.19,0,0-.48-.33,1-9.82,0,0-2.62,14.32-4.39,13.83,0,0,1.81-12.07,0-12.56,0,0-.69,13.53-1.49,13.69l-3.09,4.55A25.4,25.4,0,0,1,1268.36,451.13Z"/><path class="cls-16" d="M1378.53,520.36s9.45,1.54,6.26-9.34c0,0,3.73-9.73-6.39-16.52,0,0,6.15-11.26-2.53-17.08,0,0-5.81-17.88-15-7.61,0,0-3.36-16.78-9.07-10,0,0-10.58-13.48-14.82-6.44,0,0-7.27-15.44-18.38-8.83,0,0-10.11-13.11-23.56-5.3,0,0-4.1,2.21-1.38,5.43,0,0-6.78-8.74-11.37-2.38,0,0-9.1-3.58-14,8.86,0,0,8.13,13,50.59,41.38C1319,492.51,1372.13,523.65,1378.53,520.36Z"/><path d="M1375.13,509.79s5-2.24,2.6-8.05c0,0-4.34-.81-.3-5.79,0,0,2.91-4.34,1.46-5.31,0,0-2.43,4.66-3.72,6.59,0,0-2.59,3.85.15,5C1375.32,502.22,1380.79,502.4,1375.13,509.79Z"/><path d="M1317.3,462.6s5-2.24,2.6-8.05c0,0-4.34-.81-.3-5.79,0,0,2.91-4.34,1.46-5.31,0,0-2.43,4.66-3.72,6.59,0,0-2.59,3.85.15,5C1317.49,455,1323,455.21,1317.3,462.6Z"/><path d="M1339.4,504.69s5-2.24,2.6-8c0,0-4.34-.82-.3-5.8,0,0,2.91-4.34,1.46-5.31,0,0-2.43,4.66-3.72,6.59,0,0-2.59,3.86.14,5C1339.58,497.12,1345.06,497.3,1339.4,504.69Z"/><path d="M1373.25,493.84s1.31-8.21-3.83-11c0,0-4.25-3.55-6.55-3,0,0,6,2.6,6.81,4.57C1369.68,484.45,1372.63,484.34,1373.25,493.84Z"/><path d="M1366.1,517s1.31-8.21-3.84-11c0,0-4.24-3.55-6.54-3,0,0,6,2.6,6.8,4.57C1362.52,507.62,1365.48,507.5,1366.1,517Z"/><path d="M1278.12,459.41s5.81-6,3.2-11.16c0,0-1.42-5.35-3.61-6.23,0,0,3.35,5.55,2.91,7.66C1280.62,449.68,1283.1,451.29,1278.12,459.41Z"/><path d="M1337.11,470s7.09-4.34,5.83-10c0,0-.06-5.53-2-6.92,0,0,1.9,6.21,1,8.14C1341.92,461.19,1343.93,463.37,1337.11,470Z"/><path d="M1304.28,453.86s2.45-8.85-.12-11.27c0,0-5.3-5.65-8.69-3.73a12.16,12.16,0,0,1,7.93,5.78S1304.63,447.1,1304.28,453.86Z"/><path d="M1331.8,477.68s2.22-8.91-.41-11.27c0,0-5.44-5.51-8.78-3.51a12.16,12.16,0,0,1,8.07,5.58S1332,470.91,1331.8,477.68Z"/><path d="M1292.83,459.47s2.92-4.34-2.23-7.1c0,0-12.27-3.6-.75,1.12,0,0,5.74.83,1.86,6.62,0,0,.31,3.7-2.27,3.37,0,0-1.72,3.15,1,.38C1290.43,463.86,1293,464.46,1292.83,459.47Z"/><path d="M1316.61,474.82s-3.58-3.82-7.42.58c0,0-6.26,11.14.92,1,0,0,2.1-5.4,6.87-.32,0,0,3.68.53,2.78,3,0,0,2.68,2.39.58-.88C1320.34,478.14,1321.5,475.79,1316.61,474.82Z"/><path d="M1356.37,484.61s.66-5.15-3-2.74c0,0,7.2-6.58,4.58-6.83a3.34,3.34,0,0,0-1.65-3.79s3.53,3.07-.62-9.51a7.93,7.93,0,0,0-2.83-2.9s1.88-1.93,3.79,3.55c0,0,2.55,10.8,5.61,11.45,0,0-.17,1.29-1.62.32,0,0-.88-1.52-1.8-1.33,0,0,1.79,5.51-.79,7.28C1358,480.11,1356.22,479.62,1356.37,484.61Z"/><path class="cls-10" d="M1291.67,735.8s-59.44,14.13-108.5-53.09c0,0-14.53,26.38-4.65,52.88,0,0-4.27-.41-45.79,64.36,0,0-7.18,8.13,24.29,23.22,0,0,6.38,2.49,6.56-1.66.05-1.39-.58-3.51-2.37-6.71,0,0-12.79-9.6-13-12.9,0,0,4.94-25.68,39.83-52.29,0,0,7.15,17,31,21.44,0,0,6.69-4.26-33.54,56.49,0,0-16.66-12.17-21.41-6.62s8.5,15,8.5,15,14.9,12.2,22.08-.11c0,0,34.27-52.86,38.86-57.12C1233.55,778.64,1273.28,800.7,1291.67,735.8Z"/><path d="M1093.37,172.79l-1.72,7.73,3.34.35,2.9.71,1.5-7.94A21.87,21.87,0,0,0,1093.37,172.79Z"/><path class="cls-21" d="M951.83,231.42l11.11,6.47s-16.5,45,46.68,61c0,0,5.17-77.63,3.09-84.11,0,0,3.69-52.87,84-41.59,0,0,74.76,9.05,65.39,89.76,0,0,0,20.4-10.42,47,0,0,21.87,7.7,14.4,43.67,0,0,.91,7.22-11.94,29,0,0-.73,30.44,3,31.77l-9.83,5.85s-10.9-21,7.78-69c0,0,7.37-26.46-6.07-31.45,0,0-24.7,115.94-85.69,133,0,0-14.75,34.86-11.45,42.61,0,0,20.88,7.64,15.09,13.38,0,0,6.38,7.44-23.59-2.22,0,0-8.28-3.39,7.5-50.79,0,0-27.07,7.82-58.48-15.7l-14.48,49.47s-31.82,1-27.53-11.62c0,0,3.72-3.19,18.23,1.53,0,0,7.28,1.11,12.94-49.31,0,0-23.55-18.27-2.06-72.2,0,0,28.41-39.86,25.43-49C1004.9,308.91,936.24,292.68,951.83,231.42Z"/><path class="cls-22" d="M951.83,231.42s-4.09-1.91-1.28-16.84c0,0,5,0,4.53,2.18,0,0,1.43,7.16,2.91,5,0,0,3.59-.77,3.1-5.11l5.14,1.92s-1.38,6.22,1.33,5.31,1.5,1.78,5.24-4.63l4.8,2.35s3.35,5.25-10.52,15.73c0,0-2.7.9-4.14.58Z"/><path class="cls-23" d="M951.44,214.61l1.42-51.2S974,179,955.08,216.76Z"/><path class="cls-23" d="M962.42,217.13l9.36-53s19.34,12.32-5.55,54.46Z"/><path class="cls-23" d="M972.8,219.23l20.44-47.87s3.48,36.39-15.64,50.22Z"/><path class="cls-22" d="M1142.93,421.79l1.81,14.45,5.9-1.7s-1.92-4.94.21-5.47c0,0,2.55-2.45,3.67,3.82l5.89-1.7s-4.52-4.52.42-6.43c0,0,2.66-2.93,4.84,3.08l6.32-3.62s-7.12-13.12-14.88-9.82Z"/><path class="cls-23" d="M1146,435.89s-11,30.8,9.76,45.93l-6.85-46.77Z"/><path class="cls-23" d="M1156.06,432.44s-3.54,36.63,24.72,44.91l-22.17-45.64Z"/><path class="cls-23" d="M1168,426.52s1.33,34.73,29.28,44.44L1170.57,425Z"/><path class="cls-5" d="M1095,180.87s-56.8-8.58-73.51,37.39c0,0-12.73,52.87,54.71,76.85,0,0,68.83,10.1,74.16-35.06C1150.35,260.05,1172.25,199,1095,180.87Z"/><path d="M1067.91,208s12.49.26,10.53,15.88c0,0-2.78,10.28-15.66,7.25s-11.63-14.78-11.63-14.78S1055.21,204.16,1067.91,208Z"/><path d="M1118.12,219.11s12.49.26,10.53,15.88c0,0-2.78,10.28-15.65,7.25s-11.64-14.78-11.64-14.78S1105.42,215.3,1118.12,219.11Z"/><circle cx="1070.42" cy="244.16" r="3.43"/><circle cx="1087.64" cy="247.98" r="3.43"/><circle cx="1106.29" cy="252.11" r="3.43"/><ellipse cx="1058.95" cy="255.17" rx="2.94" ry="5.39" transform="translate(580.63 1233.79) rotate(-77.5)"/><ellipse cx="1085.26" cy="261" rx="2.94" ry="5.39" transform="translate(595.55 1264.04) rotate(-77.5)"/><ellipse cx="1112.04" cy="266.93" rx="2.94" ry="5.39" transform="translate(610.74 1294.83) rotate(-77.5)"/><circle cx="1062.92" cy="267.84" r="2.2"/><circle cx="1076.84" cy="272.93" r="2.2"/><circle cx="1093.1" cy="276.53" r="2.2"/><circle cx="1105" cy="277.16" r="2.2"/><polyline points="1021.74 217.08 1013.01 216.75 1013.2 224.9 1020.64 224.82"/><polygon points="1153.17 238.65 1162.28 238.45 1162.81 245.3 1153.13 244.3 1153.17 238.65"/><path class="cls-24" d="M979.47,358s36.95,64.64,132.32,54c0,0-15.71,31-48.49,40.81,0,0-14.38,35.44-11.45,42.61,0,0,24.2,8.42,15.08,15.66,0,0,.28,3.3-23.58-4.5,0,0-9.34-3.12,7.5-50.79,0,0-31.21,8.41-58.48-15.7l-14.48,49.47s-32.3.87-27.53-11.62c0,0,1.54-4.68,18.23,1.53,0,0,6.74-1,12.94-49.31C981.53,430.16,958.41,414.5,979.47,358Z"/></g><g id="game_over" data-name="game over"><circle class="cls-25" cx="1505" cy="1246" r="357.5"/></g></svg>