<svg id="Layer_1" data-name="Layer 1" xmlns="http://www.w3.org/2000/svg" width="870" height="97" viewBox="0 0 870 97"><defs><style>.cls-1{fill:#c1272d;}.cls-2{fill:#a4b797;}.cls-3{fill:#b4c7a9;}.cls-4{fill:#e2dfa6;}.cls-5{fill:#c5d2c0;}.cls-6{fill:#f4d083;}.cls-7{fill:#4d4d4d;}.cls-8{fill:#887146;}.cls-9{fill:#ea718b;}.cls-10{fill:#96ab8a;}.cls-11{fill:#cd89d3;}.cls-12{fill:#c875d1;}.cls-13{fill:#fff;}</style></defs><rect class="cls-1" x="52.32" y="24.72" width="769.76" height="50.21" rx="12"/><path class="cls-2" d="M51.44,20.92s-5.27,5.34-4.68,12.62c0,0-1.95,5.54-1.56,17.48a34.73,34.73,0,0,1-1,11.84s-.58,5,4.88,7.77a91,91,0,0,1,.1,11.55s2.34,4.08,5.66.77c0,0-.1-1.16-3.61-1.06,0,0-.1-11.26.58-11a8.56,8.56,0,0,0,6.35-.1s2.53,6.21.68,11c0,0,.49.68-3,.58,0,0-1.95,1-.19,1.56,0,0,5.07.77,5.56-1,0,0,.2-13.2-.39-13.2,0,0,5.47-3.49,4.29-12.71,0,0,.1-2.14,4.79-10.59,0,0,9.17-13.39,5.27-24.56C75.16,21.89,65.59,25.1,51.44,20.92Z"/><path class="cls-3" d="M61.46,47.1s19-1.47,19-.5,1-1.36,1.27,2.52c0,0,2.21,1.19,1.45-2.85,0,0,.1-2.4-7.07-1.52L61.84,45"/><path class="cls-3" d="M72.2,42.4s8.37-.75,10-.36c0,0,6.25-.58,6.83.77,0,0,0,3.89,1.07,2.72A4,4,0,0,0,89.55,41s-1.17-.87-9-.58c0,0-7.07.06-7.58.37"/><path d="M60.16,30.63s3.15,2.76,5.34,0c0,0,2.2-2,0-4.86,0,0-.44-1.7-4.34,0A4.19,4.19,0,0,0,60.16,30.63Z"/><path class="cls-4" d="M60.16,28.71s-.37,1.87,3,1.68c0,0,3.51-.2,2.54-2.53,0,0,.24-1.61-2.71-.75A2.75,2.75,0,0,0,60.16,28.71Z"/><path d="M71.42,30.79s2.42.28,3.39-4.19c0,0-.13-3.52-2.4-3.07A4.56,4.56,0,0,0,68,27.14S67.93,31.19,71.42,30.79Z"/><path class="cls-4" d="M71.3,24.47a3.33,3.33,0,0,0-2.54,2.91s-.29,2.67,2.54,1.92c0,0,2.93.14,2.78-2.44C74.08,26.86,74.13,23.59,71.3,24.47Z"/><path class="cls-5" d="M59.77,38.9s-.18,2,4.31,1.58c0,0,3.83,0,5.72.06,0,0,3-.61,2.4-1.93,0,0,.42-1.46-4.19-1.93C68,36.68,59.85,36,59.77,38.9Z"/><path class="cls-6" d="M62,37a11.76,11.76,0,0,1-.76,2.51c-.29.29,2.15-.38,2.15-.77,0,0,.19-1.94,0-2A5.68,5.68,0,0,0,62,37Z"/><path class="cls-6" d="M64.1,36.68a7.72,7.72,0,0,1-.27,1.89,3.34,3.34,0,0,0,1.62-.12,3.29,3.29,0,0,0-.25-1.83Z"/><path class="cls-6" d="M66,36.61a3.22,3.22,0,0,1,.1,1.35s.68.29,1-.19c0,0,.08-1.06-.15-1.16A2.58,2.58,0,0,0,66,36.61Z"/><path class="cls-6" d="M68,36.68s-.12-.08-.22,1.09c0,0-.17.27.45.28a5.8,5.8,0,0,0,1.19,0s.44,0,.33-1.1A10.4,10.4,0,0,0,68,36.68Z"/><path class="cls-6" d="M71.87,37.85c.08.38-1.38,1-1.38,1s-.65-.66-.39-.76.39-.91.39-.91c1.4.72,1.4.34,1.4.72v.39"/><path class="cls-6" d="M62.16,40.5a1,1,0,0,1,.65-1s1-.38,1-.19v1.19A8.08,8.08,0,0,1,62.16,40.5Z"/><path class="cls-6" d="M64.37,40.48l0-.57s0-.3.35-.11a1.33,1.33,0,0,0,.69,0s.32-.08.21.69Z"/><path class="cls-6" d="M66.38,40.54s-.44-1.85.19-1.73c0,0,.66,0,.55.77L67,40.5Z"/><path class="cls-6" d="M67.69,40.5s.25-1.28.08-1.42c0,0-.13-.3.68-.27,0,0,1-.07.61.7a1.82,1.82,0,0,0,.09,1S67.88,40.52,67.69,40.5Z"/><path class="cls-6" d="M69.8,40.54s-.21-1.18.45-1c0,0,1.3.22,1,.47Z"/><path class="cls-5" d="M67.2,32.91s-.17,1.46-.72,1.65-.64-.77-.64-.77S66.52,32.91,67.2,32.91Z"/><path class="cls-5" d="M68.42,32.72s.93-.1.83,2C69.25,34.76,67.58,34.47,68.42,32.72Z"/><path class="cls-7" d="M49.64,28s.61-.29.84,0c0,0-.58,1.11-.42,1.09,0,0,.16.37.85-.89,0,0,.68.38.48.68,0,0-.19,1.26,0,1.16,0,0,.16.17.42-1.08,0,0,.95.3.95.5,0,0,.49-.1-.78-.68a4.11,4.11,0,0,1,.58-1.07,4.94,4.94,0,0,1,.79.29s.48-.19-.59-.39a.69.69,0,0,1,.49-.77s.1.09.29-1.27-.39,1.36-1.07,1.85c0,0-1-.39-.86-.63,0,0,.86-1.89.56-1.8a7.7,7.7,0,0,0-1,1.65s-.68-.48-1-.29c0,0-.49.68.49.49,0,0,.59-.2.2.48,0,0-.2.68-.69.39C50.22,27.67,49.54,27.67,49.64,28Z"/><path class="cls-2" d="M51.3,27.28a.7.7,0,0,0-.2.39.59.59,0,0,1-.1.39s.62.21.6.49a1.41,1.41,0,0,0,.57-1S51.78,27,51.3,27.28Z"/><path class="cls-8" d="M49.47,23.5s-.22-3.3-1-3.6a3,3,0,0,1,1,1.8s.46-3,.85-3a11.19,11.19,0,0,0-.49,3.69S50.22,20,51,19.78a9.47,9.47,0,0,0-1,2.36s0,.22.2.25Z"/><path class="cls-8" d="M74.81,22s.3-.45.1-3.26c0,0,.29-.39.29,1.84,0,0,.1,0,.79-1.45,0,0-1,2.23-.69,2.33,0,0,.88-1.85,1.17-1.75a13.12,13.12,0,0,0-1.07,2v.92A4,4,0,0,0,74.81,22Z"/><path class="cls-9" d="M53,21.35s-1.46-.67,0-1.88a2.38,2.38,0,0,1,2.44-1.7s.2-2.14,2-2.14c0,0,2.48-1.94,2.8.34,0,0,2-2,2.2-.54,0,0,2.74-.89,2.68.48,0,0,2.46-1.46,3.39.49,0,0,2.64-.88,3.78,1.46,0,0,.37.69-.31.88,0,0,1.76-.58,1.81.73,0,0,1.6.35,1.11,2.53,0,0-2.35,1.05-10.93,1C63.88,23,53.54,22.4,53,21.35Z"/><path d="M54.42,20.2a1,1,0,0,1,.39-1.36s.68.29.58-.78c0,0,0-.87.3-.87,0,0-.1.87-.1,1.26,0,0,0,.78-.49.68C55.1,19.13,54.32,18.64,54.42,20.2Z"/><path d="M66.91,19a1,1,0,0,1,.39-1.36s.68.29.59-.77c0,0,0-.88.29-.88,0,0-.1.88-.1,1.26,0,0,0,.78-.49.68C67.59,18,66.81,17.48,66.91,19Z"/><path d="M59.88,22.82a1,1,0,0,1,.39-1.36s.69.29.59-.78c0,0,0-.87.29-.87,0,0-.1.87-.1,1.26,0,0,0,.78-.48.68C60.57,21.75,59.79,21.26,59.88,22.82Z"/><path d="M56.18,18.16s.58-1.26,1.56-1.17c0,0,.92-.09,1.19.2,0,0-1.07-.2-1.38,0C57.55,17.19,57.15,16.9,56.18,18.16Z"/><path d="M55,22s.59-1.26,1.57-1.16c0,0,.92-.1,1.19.19a3.28,3.28,0,0,0-1.38,0S56,20.78,55,22Z"/><path d="M72.68,22.24s-.26-1.37.6-1.85c0,0,.69-.61,1.08-.53,0,0-1,.46-1.12.79C73.24,20.65,72.74,20.65,72.68,22.24Z"/><path d="M63.45,18.22s-.58-1.27.13-1.94c0,0,.52-.76.92-.78,0,0-.85.69-.89,1C63.61,16.54,63.12,16.66,63.45,18.22Z"/><path d="M69.54,19s.49-1.46,1.08-1.55c0,0,1.27-.29,1.56.29a2.05,2.05,0,0,0-1.65.06A3.57,3.57,0,0,0,69.54,19Z"/><path d="M63.47,19.77s.53-1.44,1.12-1.52c0,0,1.27-.26,1.55.33a2,2,0,0,0-1.65,0A3.52,3.52,0,0,0,63.47,19.77Z"/><path d="M70.62,20.88a.79.79,0,0,1,1-.78s2,.64,0,.22c0,0-.87-.42-.87.75,0,0-.39.48,0,.68,0,0-.06.6-.18,0C70.54,21.71,70.13,21.55,70.62,20.88Z"/><path d="M65.86,20.79a.8.8,0,0,1,1,.77s-.17,2.13-.22.05c0,0,.22-.94-.93-.68,0,0-.56-.27-.66.15,0,0-.6.08,0-.17C65,20.91,65.09,20.47,65.86,20.79Z"/><path d="M59.4,18.45s.39-.78.68-.1c0,0-.39-1.58,0-1.37a.56.56,0,0,1,.58-.38s-.78.1,1-1.26a1.39,1.39,0,0,1,.67-.14s-.08-.44-.87.14c0,0-1.36,1.26-1.85,1.07,0,0-.1.19.2.19,0,0,.26-.12.37,0s-.76.6-.57,1.08C59.59,17.67,59.88,17.77,59.4,18.45Z"/><path class="cls-10" d="M45,59.27S52,66.76,65.1,62c0,0-.43,5-4.29,7.78,0,0,.63.34.39,13.2,0,0,.24,1.8-5.56,1,0,0-1.13-.25-.76-.84a2.31,2.31,0,0,1,.95-.72s2.69-.14,3-.58c0,0,1.71-4-.68-11a7,7,0,0,1-6.35.1s-.53-1.22-.58,11c0,0,3.46-.15,3.61,1.06s-2.59,1.29-2.59,1.29-3.22.32-3.07-2.06c0,0,.14-10.53-.1-11.55C49.1,70.63,41.49,70,45,59.27Z"/><path class="cls-11" d="M823.65,38.65s5.7-1.11,7.91-4.6c0,0,2.4-3.08,2.7-4.68a17.8,17.8,0,0,1,1.2-4.78s2.6-3,2.6-4.18c0,0-.7-1.29-3.7,2.79a11.37,11.37,0,0,0-1.5,4.88s-1.63,5.44-4,6.15a9.24,9.24,0,0,1-5.44,2.31A5.85,5.85,0,0,0,823.65,38.65Z"/><path class="cls-11" d="M802,35.82s-4.15-.27-5.05-7c0,0-2.7-6.77-5.1-8.16,0,0-1.55-2.19-2.23,0a6.82,6.82,0,0,0,2.53,3.68s2.9,3.29,2.7,5.38c0,0,.77,7.37,7.09,7.87A7,7,0,0,0,802,35.82Z"/><path class="cls-11" d="M797.12,54.16s1,1,4.89-1.17a7.07,7.07,0,0,1,5.22,2,11.76,11.76,0,0,0,5.11-1.59s1.3-.3,4.1,1.19c0,0,.79.63,4.6-1.58a6.55,6.55,0,0,1,4.26,1,1.77,1.77,0,0,0,2.35,0s1.71,9.29,0,11.08c0,0-.6,2.08-16,1.68,0,0-17.12-2.19-16.92-3.68C794.72,63,795.92,54.56,797.12,54.16Z"/><path class="cls-12" d="M794.72,63s-.9,10.75,12,11.15c0,0-2,3.88-.6,9.76,0,0-3.5-.1-3.3,1.19s3.3.6,3.3.6,1.9.79,1.2-2.39c0,0,.1-9.36,1.5-9.36,0,0,3.11.7,3.61.1,0,0,1.9,8.76.6,11,0,0,.3.8,3,.5,0,0,2,.5,2.2-.6,0,0,.36-.79-2.87-.84,0,0-.63-.25-.33-3.84,0,0,.7-3.78-.6-6.37a11.52,11.52,0,0,0,9.91-2.69s3.11-1.18,3.3-6.26c0,0-1.6,2.08-16,1.68C811.64,66.71,794.92,64.62,794.72,63Z"/><path class="cls-13" d="M797.12,54.16s1,1,4.89-1.17a7.29,7.29,0,0,1,5.22,2s3.41-.3,5.11-1.59a7.59,7.59,0,0,1,4.1,1.19s.49.73,4.6-1.58c0,0,.89-.83,5.2,1.42,0,0,1.12,0,1.41-.45,0,0-1.7-13.08-4-15.3a40.89,40.89,0,0,1,.4-10.77s2.4-15.53-10.11-16.83c0,0-10-2.06-11.93,9.87,0,0-.91,4.43,0,14.9C802,35.82,802.93,40.82,797.12,54.16Z"/><ellipse class="cls-11" cx="810.14" cy="22.9" rx="2.4" ry="3.78"/><ellipse class="cls-11" cx="815.94" cy="22.9" rx="2.4" ry="3.78"/><path d="M810.14,19.81s2.2.2,1.4,3.59c0,0-.3,2.69-1.7,2.59,0,0-1.57,0-1.59-3.09S810.14,19.81,810.14,19.81Z"/><path d="M815.54,19.81s2.2.2,1.4,3.59c0,0-.3,2.69-1.7,2.59,0,0-1.57,0-1.58-3.09S815.54,19.81,815.54,19.81Z"/><path class="cls-13" d="M808.72,21.67a1.25,1.25,0,0,0,1.12-.16c.4-.4.16-1.14.16-1.14A1.77,1.77,0,0,0,808.72,21.67Z"/><path class="cls-13" d="M814.32,21.47a1.22,1.22,0,0,0,1.12-.16c.4-.4.16-1.14.16-1.14A1.77,1.77,0,0,0,814.32,21.47Z"/><path d="M806.83,30s-.2,2.09,2.2,1.19c0,0,2.36-.2,2.68.5a3.51,3.51,0,0,0,2.61-.29,5.89,5.89,0,0,1,2.52-.11s2.31.32,2.56-.38c0,0,.44-1.88-1.06-2.29s-3.8.58-3.8.58a6.89,6.89,0,0,1-4.1,0S807,27.58,806.83,30Z"/></svg>