<svg xmlns="http://www.w3.org/2000/svg" width="146" height="57" viewBox="0 0 146 57"><defs><style>.cls-1,.cls-3{fill:#fff;}.cls-2{fill:#f28a22;}.cls-3{opacity:0.14;}.cls-4{fill:#3d2a09;}</style></defs><g id="Layer_1" data-name="Layer 1"><polygon class="cls-1" points="31.24 27.8 30.04 31.27 33.56 31.38 34.36 28.34 31.24 27.8"/></g><g id="græskar"><path class="cls-2" d="M41.11,11.33a5.23,5.23,0,0,0,4.3.75c2.2-.76,12.1-2.58,16.43-1.33s17.52,9.62,16.82,16.58-2,21.41-18.91,19.48c0,0-7.73,3.21-13.85.63,0,0-9.15,2.58-16.29-2.51,0,0-8.88-.84-14.83-4.41S1.29,28.06,2.6,14.63c0,0,4.67-13.45,20.68-10.62S41.11,11.33,41.11,11.33Z"/><path class="cls-3" d="M41.11,11.33S5.37-3.34,6.47,32.13L10,36.66S6.93,5,41.11,11.33Z"/><path class="cls-3" d="M42.31,12s-18,.68-20.39,31.48l6.26,1.32S26.4,24.39,42.31,12Z"/><path class="cls-3" d="M44.17,12.75s5.77,14-3,35.33c0,0,3.13-.4,4.68-.64a5.91,5.91,0,0,0,2.57.76S49.86,19.8,44.17,12.75Z"/><path class="cls-3" d="M44.43,12.28S62.64,22,59.75,46.81L64,47S65.74,20.53,44.43,12.28Z"/><path class="cls-3" d="M45.41,12.08s23.87,1.25,33,17.62l.28-2.7S72.26,11.31,45.41,12.08Z"/><ellipse cx="36.87" cy="20.84" rx="5.23" ry="2.99" transform="translate(1.47 44.08) rotate(-62.76)"/><ellipse cx="50.28" cy="22.15" rx="2.99" ry="5.23" transform="translate(-3.3 9.99) rotate(-10.99)"/><path d="M17,24s19.4,11.22,48.17,4.55c0,0-11.72,10-25.12,8.69S17,24,17,24Z"/><polygon class="cls-1" points="36.11 36.62 35.76 34.24 39 34.64 38.73 37.01 36.11 36.62"/><path class="cls-4" d="M96.07,15.62s-1.53-6.15,4.63-8.23L103,10.8s-5.68,2.31-4.33,4.43Z"/><path class="cls-2" d="M95.24,14.87a5.42,5.42,0,0,0,4.42-.68c1.93-1.43,11.09-6.35,15.68-6.56S135.17,11.12,136.45,18s4.11,21-13,24.61c0,0-6.65,5.54-13.35,5.07,0,0-8.22,5.39-16.63,2.86,0,0-8.91,2.07-15.73.6s-16.7-7.48-19.2-20.66c0,0,.77-14.28,17.21-16.76S95.24,14.87,95.24,14.87Z"/><path class="cls-3" d="M95.24,14.87s-39-2.41-28,30.93L72,49S60.07,19.91,95.24,14.87Z"/><path class="cls-3" d="M96.59,15.07s-17.42,6.47-11,36.49L92,50.78S84.55,32,96.59,15.07Z"/><path class="cls-3" d="M98.64,15.23s9.58,11.44,7.08,34.51c0,0,2.93-1.39,4.39-2.11a6,6,0,0,0,2.72-.12S106.19,20.09,98.64,15.23Z"/><path class="cls-3" d="M98.75,14.7s20.54,3.38,24.71,27.86l4.17-1.23S121.9,15.66,98.75,14.7Z"/><path class="cls-3" d="M99.66,14.19s23.67-6.51,37.21,6.1l-.49-2.66S125.68,4.8,99.66,14.19Z"/><polygon points="80.31 21.97 81.03 28.37 93.85 29.4 80.31 21.97"/><polygon points="115.48 16.56 116.2 22.96 104.04 27.84 115.48 16.56"/><path d="M73.41,34.43S99.87,38.65,126,26.35c0,0-10.15,10.51-25.18,13.75S73.41,34.43,73.41,34.43Z"/><path class="cls-1" d="M80.56,35l2.37,2.89,3.17-2.81,2.32,2.51,2.67-2.7,2.7,2.65,2.84-3.12L100,36.63l1.89-2.9,3.92,2,1.81-3.12,3.77,1.74,1.35-3.05,3.49,1.52L117,30l2.13.7.83-1.69,2.07.24.63-1.4a102.51,102.51,0,0,1-46.07,7l1.75,1.66Z"/><path class="cls-1" d="M78.81,37.4l1.52-1.27L82.83,39l2.69-2.11,3,3.51,2.26-3.63,2.8,4.08,3.11-4.68,4.07,4,1.29-4.51,4.47,2.86,1.41-4.37,3.85,2.15,1.39-3.65,3.21,1.12,1.16-2.5,2.31.21.7-1.47,1.24,0S100.87,48.11,78.81,37.4Z"/><path class="cls-4" d="M41.85,12.47s-1.54-6.15,4.63-8.23l2.27,3.41S43.07,10,44.41,12.08Z"/></g></svg>